<?xml version="1.0" encoding="UTF-8" standalone="no"?>
<!-- Created with Inkscape (http://www.inkscape.org/) -->

<svg
   xmlns:dc="http://purl.org/dc/elements/1.1/"
   xmlns:cc="http://creativecommons.org/ns#"
   xmlns:rdf="http://www.w3.org/1999/02/22-rdf-syntax-ns#"
   xmlns:svg="http://www.w3.org/2000/svg"
   xmlns="http://www.w3.org/2000/svg"
   xmlns:sodipodi="http://sodipodi.sourceforge.net/DTD/sodipodi-0.dtd"
   xmlns:inkscape="http://www.inkscape.org/namespaces/inkscape"
   width="128mm"
   height="128mm"
   viewBox="0 0 128 128"
   version="1.1"
   id="svg8"
   inkscape:version="0.92.5 (2060ec1f9f, 2020-04-08)"
   sodipodi:docname="icon.svg"
   enable-background="new">
  <defs
     id="defs2">
    <filter
       inkscape:collect="always"
       style="color-interpolation-filters:sRGB"
       id="filter940"
       x="-0.58144681"
       width="2.1628936"
       y="-0.57065429"
       height="2.1413086">
      <feGaussianBlur
         inkscape:collect="always"
         stdDeviation="17.489921"
         id="feGaussianBlur942" />
    </filter>
    <filter
       inkscape:collect="always"
       style="color-interpolation-filters:sRGB"
       id="filter976"
       x="-0.3391773"
       width="1.6783546"
       y="-0.33288167"
       height="1.6657633">
      <feGaussianBlur
         inkscape:collect="always"
         stdDeviation="10.202454"
         id="feGaussianBlur978" />
    </filter>
    <filter
       inkscape:collect="always"
       style="color-interpolation-filters:sRGB"
       id="filter1032"
       x="-0.17927943"
       width="1.3585589"
       y="-0.17595174"
       height="1.3519035">
      <feGaussianBlur
         inkscape:collect="always"
         stdDeviation="5.3927255"
         id="feGaussianBlur1034" />
    </filter>
    <filter
       inkscape:collect="always"
       style="color-interpolation-filters:sRGB"
       id="filter1091"
       x="-0.60949791"
       width="2.2189958"
       y="-0.54599235"
       height="2.0919847">
      <feGaussianBlur
         inkscape:collect="always"
         stdDeviation="49.527655"
         id="feGaussianBlur1093" />
    </filter>
    <filter
       height="1.6369911"
       y="-0.31849554"
       width="1.7110809"
       x="-0.35554045"
       id="filter1099"
       style="color-interpolation-filters:sRGB"
       inkscape:collect="always">
      <feGaussianBlur
         stdDeviation="28.891132"
         id="feGaussianBlur1111" />
    </filter>
    <filter
       inkscape:collect="always"
       style="color-interpolation-filters:sRGB"
       id="filter1103"
       x="-0.1904681"
       width="1.3809362"
       y="-0.17062261"
       height="1.3412452">
      <feGaussianBlur
         stdDeviation="15.477392"
         id="feGaussianBlur1109" />
    </filter>
    <filter
       inkscape:collect="always"
       style="color-interpolation-filters:sRGB"
       id="filter1113"
       x="-0.048"
       width="1.096"
       y="-0.048"
       height="1.096">
      <feGaussianBlur
         inkscape:collect="always"
         stdDeviation="2.24"
         id="feGaussianBlur1115" />
    </filter>
  </defs>
  <sodipodi:namedview
     id="base"
     pagecolor="#ffffff"
     bordercolor="#666666"
     borderopacity="1.0"
     inkscape:pageopacity="0.0"
     inkscape:pageshadow="2"
     inkscape:zoom="0.35"
     inkscape:cx="512.45773"
     inkscape:cy="-93.481069"
     inkscape:document-units="mm"
     inkscape:current-layer="layer4"
     showgrid="false"
     inkscape:pagecheckerboard="true"
     inkscape:window-width="1920"
     inkscape:window-height="1043"
     inkscape:window-x="1920"
     inkscape:window-y="0"
     inkscape:window-maximized="1" />
  <metadata
     id="metadata5">
    <rdf:RDF>
      <cc:Work
         rdf:about="">
        <dc:format>image/svg+xml</dc:format>
        <dc:type
           rdf:resource="http://purl.org/dc/dcmitype/StillImage" />
        <dc:title />
      </cc:Work>
    </rdf:RDF>
  </metadata>
  <rect
     style="display:inline;opacity:1;fill:#220054;fill-opacity:1;fill-rule:nonzero;stroke:#868686;stroke-width:0;stroke-linecap:butt;stroke-linejoin:miter;stroke-miterlimit:4;stroke-dasharray:none;stroke-dashoffset:0;stroke-opacity:1;paint-order:markers stroke fill;filter:url(#filter1113)"
     id="rect10"
     width="112"
     height="112"
     x="8"
     y="8.0000048"
     ry="32"
     inkscape:label="Background" />
  <g
     inkscape:groupmode="layer"
     id="layer4"
     inkscape:label="symbol">
    <path
       style="color:#000000;font-style:normal;font-variant:normal;font-weight:normal;font-stretch:normal;font-size:medium;line-height:normal;font-family:sans-serif;font-variant-ligatures:normal;font-variant-position:normal;font-variant-caps:normal;font-variant-numeric:normal;font-variant-alternates:normal;font-feature-settings:normal;text-indent:0;text-align:start;text-decoration:none;text-decoration-line:none;text-decoration-style:solid;text-decoration-color:#000000;letter-spacing:normal;word-spacing:normal;text-transform:none;writing-mode:lr-tb;direction:ltr;text-orientation:mixed;dominant-baseline:auto;baseline-shift:baseline;text-anchor:start;white-space:normal;shape-padding:0;clip-rule:nonzero;display:inline;overflow:visible;visibility:visible;opacity:1;isolation:auto;mix-blend-mode:normal;color-interpolation:sRGB;color-interpolation-filters:linearRGB;solid-color:#000000;solid-opacity:1;vector-effect:none;fill:#00ffce;fill-opacity:1;fill-rule:nonzero;stroke:#00ffce;stroke-width:11.33858299;stroke-linecap:butt;stroke-linejoin:round;stroke-miterlimit:4;stroke-dasharray:none;stroke-dashoffset:0;stroke-opacity:1;paint-order:markers stroke fill;filter:url(#filter1091);color-rendering:auto;image-rendering:auto;shape-rendering:auto;text-rendering:auto;enable-background:accumulate"
       d="m 310.67383,133.03711 c -26.41901,0 -50.34415,4.25055 -67.93555,11.28711 -8.7957,3.51828 -16.02027,7.72343 -21.20117,12.62305 -5.1809,4.89961 -8.37109,10.67041 -8.37109,16.91015 0,6.23974 3.19019,12.0125 8.37109,16.91211 5.1809,4.89961 12.40547,9.10477 21.20117,12.62305 17.5914,7.03656 41.51654,11.28711 67.93555,11.28711 26.41901,0 50.34414,-4.25055 67.93555,-11.28711 8.79567,-3.51828 16.02808,-7.72344 21.20898,-12.62305 5.1809,-4.89961 8.37109,-10.67237 8.37109,-16.91211 0,-6.23974 -3.19019,-12.01054 -8.37109,-16.91015 -5.1809,-4.89962 -12.41331,-9.10477 -21.20898,-12.62305 -17.59141,-7.03656 -41.51654,-11.28711 -67.93555,-11.28711 z m 0,6.05273 c 25.76537,0 49.08481,4.20893 65.6914,10.85157 8.30329,3.32132 14.91505,7.26038 19.29688,11.40429 4.38179,4.14392 6.48047,8.31459 6.48047,12.51172 0,4.19714 -2.09868,8.36976 -6.48047,12.51367 -4.38183,4.14392 -10.99359,8.08298 -19.29688,11.4043 -16.60659,6.64264 -39.92603,10.85156 -65.6914,10.85156 -25.76538,0 -49.077,-4.20892 -65.6836,-10.85156 -8.30329,-3.32132 -14.91505,-7.26038 -19.29687,-11.4043 -4.38182,-4.14391 -6.48047,-8.31653 -6.48047,-12.51367 0,-4.19713 2.09865,-8.3678 6.48047,-12.51172 4.38182,-4.14391 10.99358,-8.08297 19.29687,-11.40429 16.6066,-6.64264 39.91822,-10.85157 65.6836,-10.85157 z m 97.51562,50.94336 c -0.86956,1.11376 -1.81941,2.1949 -2.84375,3.24219 -0.99023,1.01243 -2.07482,1.99035 -3.20312,2.95117 v 22.98633 c 0,4.19714 -2.09868,8.36976 -6.48047,12.51367 -4.38183,4.14392 -10.99359,8.08298 -19.29688,11.4043 -16.60659,6.64264 -39.92603,10.85156 -65.6914,10.85156 -25.76538,0 -49.077,-4.20892 -65.6836,-10.85156 -8.30329,-3.32132 -14.91505,-7.26038 -19.29687,-11.4043 -4.38182,-4.14391 -6.48047,-8.31653 -6.48047,-12.51367 v -22.98437 c -1.12885,-0.96152 -2.21408,-1.93993 -3.20508,-2.95313 -1.02331,-1.04625 -1.97293,-2.12569 -2.84179,-3.23828 v 29.17578 c 0,6.23974 3.19019,12.0125 8.37109,16.91211 5.1809,4.89961 12.40547,9.10477 21.20117,12.62305 17.5914,7.03656 41.51654,11.28711 67.93555,11.28711 26.41901,0 50.34414,-4.25055 67.93555,-11.28711 8.79566,-3.51828 16.02808,-7.72344 21.20898,-12.62305 5.1809,-4.89961 8.37109,-10.67237 8.37109,-16.91211 z m 0,45.35352 c -0.86955,1.11376 -1.81942,2.19489 -2.84375,3.24219 -0.99023,1.01243 -2.07482,1.99035 -3.20312,2.95117 v 22.98633 c 0,4.19714 -2.09868,8.36976 -6.48047,12.51367 -4.38183,4.14392 -10.99358,8.08297 -19.29688,11.4043 -16.60659,6.64264 -39.92603,10.85156 -65.6914,10.85156 -25.76538,0 -49.077,-4.20892 -65.6836,-10.85156 -8.30329,-3.32133 -14.91505,-7.26038 -19.29687,-11.4043 -4.38182,-4.14391 -6.48047,-8.31653 -6.48047,-12.51367 v -22.98438 c -1.12885,-0.96152 -2.21408,-1.93993 -3.20508,-2.95312 -1.02331,-1.04626 -1.97293,-2.1257 -2.84179,-3.23829 v 29.17579 c 0,6.23974 3.19019,12.0125 8.37109,16.91211 5.1809,4.89961 12.40547,9.10476 21.20117,12.62304 17.5914,7.03656 41.51654,11.28711 67.93555,11.28711 26.41901,0 50.34414,-4.25055 67.93555,-11.28711 8.79567,-3.51828 16.02808,-7.72343 21.20898,-12.62304 5.1809,-4.89961 8.37109,-10.67237 8.37109,-16.91211 z m 0,45.35547 c -0.86955,1.11376 -1.81942,2.19489 -2.84375,3.24219 -0.99023,1.01242 -2.07482,1.99035 -3.20312,2.95117 v 22.98633 c 0,4.19713 -2.09868,8.36976 -6.48047,12.51367 -4.38183,4.14392 -10.99358,8.08297 -19.29688,11.40429 -16.60659,6.64264 -39.92603,10.85157 -65.6914,10.85157 -25.76538,0 -49.077,-4.20893 -65.6836,-10.85157 -8.30329,-3.32132 -14.91505,-7.26037 -19.29687,-11.40429 -4.38182,-4.14391 -6.48047,-8.31654 -6.48047,-12.51367 V 286.9375 c -1.12885,-0.96152 -2.21408,-1.93993 -3.20508,-2.95312 -1.02331,-1.04626 -1.97293,-2.1257 -2.84179,-3.23829 v 29.17579 c 0,6.23973 3.19019,12.01249 8.37109,16.9121 5.1809,4.89961 12.40547,9.10477 21.20117,12.62305 17.5914,7.03656 41.51654,11.28711 67.93555,11.28711 26.41901,0 50.34414,-4.25055 67.93555,-11.28711 8.79567,-3.51828 16.02808,-7.72344 21.20898,-12.62305 5.1809,-4.89961 8.37109,-10.67237 8.37109,-16.9121 z"
       transform="matrix(0.19843738,0,0,0.19843738,20.537425,15.999858)"
       id="path1080"
       inkscape:connector-curvature="0"
       inkscape:label="symbol 3" />
    <g
       aria-label="@"
       transform="matrix(0.30740932,0,0,0.30740931,-15.234191,-3.95559)"
       style="font-style:normal;font-weight:normal;font-size:40px;line-height:1.25;font-family:sans-serif;letter-spacing:0px;word-spacing:0px;fill:#ff7000;fill-opacity:1;stroke:#ff7000;stroke-width:11.33858299;stroke-linejoin:round;stroke-miterlimit:4;stroke-dasharray:none;stroke-opacity:1;filter:url(#filter940)"
       id="flowRoot900"
       inkscape:label="text 3">
      <path
         d="m 184.22134,241.11232 q -5.37601,0 -7.59467,-2.98667 -1.96267,1.19467 -4.608,1.96267 -2.64534,0.68267 -5.632,0.68267 -6.4,0 -10.24,-3.584 -3.84,-3.66934 -3.84,-10.92267 0,-4.864 1.62133,-9.38667 1.70667,-4.608 4.864,-8.02133 3.15733,-3.49867 7.68,-5.54667 4.52267,-2.13333 10.32533,-2.13333 4.43734,0 7.68001,0.768 3.328,0.768 5.03466,1.45067 l -6.22933,25.94133 q -0.42667,1.28 -0.42667,2.47467 0,1.024 0.512,1.792 0.59734,0.768 2.304,0.768 3.584,0 6.144,-2.048 2.56,-2.13334 4.26667,-5.376 1.70667,-3.328 2.47467,-7.25334 0.85333,-3.92533 0.85333,-7.59466 0,-4.69334 -1.19467,-8.61867 -1.19466,-3.92533 -3.92533,-6.74133 -2.64533,-2.816 -6.99733,-4.352 -4.352,-1.62134 -10.66667,-1.62134 -7.424,0 -13.824,3.24267 -6.4,3.15733 -11.09334,8.53333 -4.69333,5.29067 -7.33866,12.37334 -2.64534,6.99733 -2.64534,14.67733 0,5.71733 1.62134,9.81333 1.70666,4.096 4.69333,6.74134 2.98667,2.64533 7.168,3.92533 4.18133,1.28 9.216,1.28 4.94933,0 8.27733,-0.68267 3.41334,-0.59733 4.352,-0.93866 l -0.59733,6.31466 q -0.768,0.256 -2.21867,0.512 -1.45066,0.34134 -3.328,0.59734 -1.792,0.34133 -3.92533,0.512 -2.048,0.17066 -4.096,0.17066 -6.144,0 -11.34933,-1.792 -5.20534,-1.70666 -9.04534,-5.20533 -3.75466,-3.41333 -5.888,-8.53333 -2.13333,-5.12 -2.13333,-11.86134 0,-8.53333 2.816,-16.81066 2.90133,-8.36267 8.448,-14.848 5.54667,-6.48534 13.568,-10.496 8.02133,-4.01067 18.432,-4.01067 13.90934,0 21.41867,6.912 7.50933,6.912 7.50933,20.39467 0,4.01066 -0.93866,9.13066 -0.85334,5.03467 -3.328,9.64267 -2.47467,4.52267 -6.912,7.68 -4.352,3.072 -11.264,3.072 z M 167.496,234.37099 q 4.608,0 7.85067,-1.70667 0,-1.45067 0.17066,-2.38933 0.17067,-1.024 0.42667,-1.96267 l 4.864,-20.05333 q -0.42667,-0.17067 -1.87733,-0.34134 -1.45067,-0.17066 -3.15734,-0.17066 -3.66933,0 -6.57066,1.45066 -2.90134,1.45067 -4.94934,3.92534 -2.048,2.47466 -3.15733,5.71733 -1.10933,3.24267 -1.10933,6.74133 0,4.608 1.87733,6.74134 1.96267,2.048 5.632,2.048 z"
         style="font-style:italic;font-variant:normal;font-weight:normal;font-stretch:normal;font-size:85.33333588px;font-family:Ubuntu;-inkscape-font-specification:'Ubuntu, Italic';font-variant-ligatures:normal;font-variant-caps:normal;font-variant-numeric:normal;font-feature-settings:normal;text-align:start;writing-mode:lr-tb;text-anchor:start;fill:#ff7000;fill-opacity:1;stroke:#ff7000;stroke-width:11.33858299;stroke-linejoin:round;stroke-miterlimit:4;stroke-dasharray:none;stroke-opacity:1"
         id="path848"
         inkscape:connector-curvature="0" />
    </g>
    <path
       inkscape:label="symbol 2"
       inkscape:connector-curvature="0"
       id="path1095"
       transform="matrix(0.19843738,0,0,0.19843738,20.537425,15.999857)"
       d="m 310.67383,133.03711 c -26.41901,0 -50.34415,4.25055 -67.93555,11.28711 -8.7957,3.51828 -16.02027,7.72343 -21.20117,12.62305 -5.1809,4.89961 -8.37109,10.67041 -8.37109,16.91015 0,6.23974 3.19019,12.0125 8.37109,16.91211 5.1809,4.89961 12.40547,9.10477 21.20117,12.62305 17.5914,7.03656 41.51654,11.28711 67.93555,11.28711 26.41901,0 50.34414,-4.25055 67.93555,-11.28711 8.79567,-3.51828 16.02808,-7.72344 21.20898,-12.62305 5.1809,-4.89961 8.37109,-10.67237 8.37109,-16.91211 0,-6.23974 -3.19019,-12.01054 -8.37109,-16.91015 -5.1809,-4.89962 -12.41331,-9.10477 -21.20898,-12.62305 -17.59141,-7.03656 -41.51654,-11.28711 -67.93555,-11.28711 z m 0,6.05273 c 25.76537,0 49.08481,4.20893 65.6914,10.85157 8.30329,3.32132 14.91505,7.26038 19.29688,11.40429 4.38179,4.14392 6.48047,8.31459 6.48047,12.51172 0,4.19714 -2.09868,8.36976 -6.48047,12.51367 -4.38183,4.14392 -10.99359,8.08298 -19.29688,11.4043 -16.60659,6.64264 -39.92603,10.85156 -65.6914,10.85156 -25.76538,0 -49.077,-4.20892 -65.6836,-10.85156 -8.30329,-3.32132 -14.91505,-7.26038 -19.29687,-11.4043 -4.38182,-4.14391 -6.48047,-8.31653 -6.48047,-12.51367 0,-4.19713 2.09865,-8.3678 6.48047,-12.51172 4.38182,-4.14391 10.99358,-8.08297 19.29687,-11.40429 16.6066,-6.64264 39.91822,-10.85157 65.6836,-10.85157 z m 97.51562,50.94336 c -0.86956,1.11376 -1.81941,2.1949 -2.84375,3.24219 -0.99023,1.01243 -2.07482,1.99035 -3.20312,2.95117 v 22.98633 c 0,4.19714 -2.09868,8.36976 -6.48047,12.51367 -4.38183,4.14392 -10.99359,8.08298 -19.29688,11.4043 -16.60659,6.64264 -39.92603,10.85156 -65.6914,10.85156 -25.76538,0 -49.077,-4.20892 -65.6836,-10.85156 -8.30329,-3.32132 -14.91505,-7.26038 -19.29687,-11.4043 -4.38182,-4.14391 -6.48047,-8.31653 -6.48047,-12.51367 v -22.98437 c -1.12885,-0.96152 -2.21408,-1.93993 -3.20508,-2.95313 -1.02331,-1.04625 -1.97293,-2.12569 -2.84179,-3.23828 v 29.17578 c 0,6.23974 3.19019,12.0125 8.37109,16.91211 5.1809,4.89961 12.40547,9.10477 21.20117,12.62305 17.5914,7.03656 41.51654,11.28711 67.93555,11.28711 26.41901,0 50.34414,-4.25055 67.93555,-11.28711 8.79566,-3.51828 16.02808,-7.72344 21.20898,-12.62305 5.1809,-4.89961 8.37109,-10.67237 8.37109,-16.91211 z m 0,45.35352 c -0.86955,1.11376 -1.81942,2.19489 -2.84375,3.24219 -0.99023,1.01243 -2.07482,1.99035 -3.20312,2.95117 v 22.98633 c 0,4.19714 -2.09868,8.36976 -6.48047,12.51367 -4.38183,4.14392 -10.99358,8.08297 -19.29688,11.4043 -16.60659,6.64264 -39.92603,10.85156 -65.6914,10.85156 -25.76538,0 -49.077,-4.20892 -65.6836,-10.85156 -8.30329,-3.32133 -14.91505,-7.26038 -19.29687,-11.4043 -4.38182,-4.14391 -6.48047,-8.31653 -6.48047,-12.51367 v -22.98438 c -1.12885,-0.96152 -2.21408,-1.93993 -3.20508,-2.95312 -1.02331,-1.04626 -1.97293,-2.1257 -2.84179,-3.23829 v 29.17579 c 0,6.23974 3.19019,12.0125 8.37109,16.91211 5.1809,4.89961 12.40547,9.10476 21.20117,12.62304 17.5914,7.03656 41.51654,11.28711 67.93555,11.28711 26.41901,0 50.34414,-4.25055 67.93555,-11.28711 8.79567,-3.51828 16.02808,-7.72343 21.20898,-12.62304 5.1809,-4.89961 8.37109,-10.67237 8.37109,-16.91211 z m 0,45.35547 c -0.86955,1.11376 -1.81942,2.19489 -2.84375,3.24219 -0.99023,1.01242 -2.07482,1.99035 -3.20312,2.95117 v 22.98633 c 0,4.19713 -2.09868,8.36976 -6.48047,12.51367 -4.38183,4.14392 -10.99358,8.08297 -19.29688,11.40429 -16.60659,6.64264 -39.92603,10.85157 -65.6914,10.85157 -25.76538,0 -49.077,-4.20893 -65.6836,-10.85157 -8.30329,-3.32132 -14.91505,-7.26037 -19.29687,-11.40429 -4.38182,-4.14391 -6.48047,-8.31654 -6.48047,-12.51367 V 286.9375 c -1.12885,-0.96152 -2.21408,-1.93993 -3.20508,-2.95312 -1.02331,-1.04626 -1.97293,-2.1257 -2.84179,-3.23829 v 29.17579 c 0,6.23973 3.19019,12.01249 8.37109,16.9121 5.1809,4.89961 12.40547,9.10477 21.20117,12.62305 17.5914,7.03656 41.51654,11.28711 67.93555,11.28711 26.41901,0 50.34414,-4.25055 67.93555,-11.28711 8.79567,-3.51828 16.02808,-7.72344 21.20898,-12.62305 5.1809,-4.89961 8.37109,-10.67237 8.37109,-16.9121 z"
       style="color:#000000;font-style:normal;font-variant:normal;font-weight:normal;font-stretch:normal;font-size:medium;line-height:normal;font-family:sans-serif;font-variant-ligatures:normal;font-variant-position:normal;font-variant-caps:normal;font-variant-numeric:normal;font-variant-alternates:normal;font-feature-settings:normal;text-indent:0;text-align:start;text-decoration:none;text-decoration-line:none;text-decoration-style:solid;text-decoration-color:#000000;letter-spacing:normal;word-spacing:normal;text-transform:none;writing-mode:lr-tb;direction:ltr;text-orientation:mixed;dominant-baseline:auto;baseline-shift:baseline;text-anchor:start;white-space:normal;shape-padding:0;clip-rule:nonzero;display:inline;overflow:visible;visibility:visible;opacity:1;isolation:auto;mix-blend-mode:normal;color-interpolation:sRGB;color-interpolation-filters:linearRGB;solid-color:#000000;solid-opacity:1;vector-effect:none;fill:#41ffda;fill-opacity:1;fill-rule:nonzero;stroke:#41ffda;stroke-width:9.44881916;stroke-linecap:butt;stroke-linejoin:round;stroke-miterlimit:4;stroke-dasharray:none;stroke-dashoffset:0;stroke-opacity:1;paint-order:markers stroke fill;filter:url(#filter1099);color-rendering:auto;image-rendering:auto;shape-rendering:auto;text-rendering:auto;enable-background:accumulate" />
    <g
       aria-label="@"
       transform="matrix(0.30740932,0,0,0.30740931,-15.234191,-3.9555894)"
       style="font-style:normal;font-weight:normal;font-size:40px;line-height:1.25;font-family:sans-serif;letter-spacing:0px;word-spacing:0px;display:inline;fill:#ff9541;fill-opacity:1;stroke:#ff9541;stroke-width:9.44881916;stroke-linejoin:round;stroke-miterlimit:4;stroke-dasharray:none;stroke-opacity:1;filter:url(#filter976)"
       id="flowRoot934"
       inkscape:label="text 2">
      <path
         d="m 184.22134,241.11232 q -5.37601,0 -7.59467,-2.98667 -1.96267,1.19467 -4.608,1.96267 -2.64534,0.68267 -5.632,0.68267 -6.4,0 -10.24,-3.584 -3.84,-3.66934 -3.84,-10.92267 0,-4.864 1.62133,-9.38667 1.70667,-4.608 4.864,-8.02133 3.15733,-3.49867 7.68,-5.54667 4.52267,-2.13333 10.32533,-2.13333 4.43734,0 7.68001,0.768 3.328,0.768 5.03466,1.45067 l -6.22933,25.94133 q -0.42667,1.28 -0.42667,2.47467 0,1.024 0.512,1.792 0.59734,0.768 2.304,0.768 3.584,0 6.144,-2.048 2.56,-2.13334 4.26667,-5.376 1.70667,-3.328 2.47467,-7.25334 0.85333,-3.92533 0.85333,-7.59466 0,-4.69334 -1.19467,-8.61867 -1.19466,-3.92533 -3.92533,-6.74133 -2.64533,-2.816 -6.99733,-4.352 -4.352,-1.62134 -10.66667,-1.62134 -7.424,0 -13.824,3.24267 -6.4,3.15733 -11.09334,8.53333 -4.69333,5.29067 -7.33866,12.37334 -2.64534,6.99733 -2.64534,14.67733 0,5.71733 1.62134,9.81333 1.70666,4.096 4.69333,6.74134 2.98667,2.64533 7.168,3.92533 4.18133,1.28 9.216,1.28 4.94933,0 8.27733,-0.68267 3.41334,-0.59733 4.352,-0.93866 l -0.59733,6.31466 q -0.768,0.256 -2.21867,0.512 -1.45066,0.34134 -3.328,0.59734 -1.792,0.34133 -3.92533,0.512 -2.048,0.17066 -4.096,0.17066 -6.144,0 -11.34933,-1.792 -5.20534,-1.70666 -9.04534,-5.20533 -3.75466,-3.41333 -5.888,-8.53333 -2.13333,-5.12 -2.13333,-11.86134 0,-8.53333 2.816,-16.81066 2.90133,-8.36267 8.448,-14.848 5.54667,-6.48534 13.568,-10.496 8.02133,-4.01067 18.432,-4.01067 13.90934,0 21.41867,6.912 7.50933,6.912 7.50933,20.39467 0,4.01066 -0.93866,9.13066 -0.85334,5.03467 -3.328,9.64267 -2.47467,4.52267 -6.912,7.68 -4.352,3.072 -11.264,3.072 z M 167.496,234.37099 q 4.608,0 7.85067,-1.70667 0,-1.45067 0.17066,-2.38933 0.17067,-1.024 0.42667,-1.96267 l 4.864,-20.05333 q -0.42667,-0.17067 -1.87733,-0.34134 -1.45067,-0.17066 -3.15734,-0.17066 -3.66933,0 -6.57066,1.45066 -2.90134,1.45067 -4.94934,3.92534 -2.048,2.47466 -3.15733,5.71733 -1.10933,3.24267 -1.10933,6.74133 0,4.608 1.87733,6.74134 1.96267,2.048 5.632,2.048 z"
         style="font-style:italic;font-variant:normal;font-weight:normal;font-stretch:normal;font-size:85.33333588px;font-family:Ubuntu;-inkscape-font-specification:'Ubuntu, Italic';font-variant-ligatures:normal;font-variant-caps:normal;font-variant-numeric:normal;font-feature-settings:normal;text-align:start;writing-mode:lr-tb;text-anchor:start;fill:#ff9541;fill-opacity:1;stroke:#ff9541;stroke-width:9.44881916;stroke-linejoin:round;stroke-miterlimit:4;stroke-dasharray:none;stroke-opacity:1"
         id="path851"
         inkscape:connector-curvature="0" />
    </g>
    <path
       style="color:#000000;font-style:normal;font-variant:normal;font-weight:normal;font-stretch:normal;font-size:medium;line-height:normal;font-family:sans-serif;font-variant-ligatures:normal;font-variant-position:normal;font-variant-caps:normal;font-variant-numeric:normal;font-variant-alternates:normal;font-feature-settings:normal;text-indent:0;text-align:start;text-decoration:none;text-decoration-line:none;text-decoration-style:solid;text-decoration-color:#000000;letter-spacing:normal;word-spacing:normal;text-transform:none;writing-mode:lr-tb;direction:ltr;text-orientation:mixed;dominant-baseline:auto;baseline-shift:baseline;text-anchor:start;white-space:normal;shape-padding:0;clip-rule:nonzero;display:inline;overflow:visible;visibility:visible;opacity:1;isolation:auto;mix-blend-mode:normal;color-interpolation:sRGB;color-interpolation-filters:linearRGB;solid-color:#000000;solid-opacity:1;vector-effect:none;fill:#81ffe6;fill-opacity:1;fill-rule:nonzero;stroke:#81ffe6;stroke-width:2.26771665;stroke-linecap:butt;stroke-linejoin:round;stroke-miterlimit:4;stroke-dasharray:none;stroke-dashoffset:0;stroke-opacity:1;paint-order:markers stroke fill;filter:url(#filter1103);color-rendering:auto;image-rendering:auto;shape-rendering:auto;text-rendering:auto;enable-background:accumulate"
       d="m 310.67383,133.03711 c -26.41901,0 -50.34415,4.25055 -67.93555,11.28711 -8.7957,3.51828 -16.02027,7.72343 -21.20117,12.62305 -5.1809,4.89961 -8.37109,10.67041 -8.37109,16.91015 0,6.23974 3.19019,12.0125 8.37109,16.91211 5.1809,4.89961 12.40547,9.10477 21.20117,12.62305 17.5914,7.03656 41.51654,11.28711 67.93555,11.28711 26.41901,0 50.34414,-4.25055 67.93555,-11.28711 8.79567,-3.51828 16.02808,-7.72344 21.20898,-12.62305 5.1809,-4.89961 8.37109,-10.67237 8.37109,-16.91211 0,-6.23974 -3.19019,-12.01054 -8.37109,-16.91015 -5.1809,-4.89962 -12.41331,-9.10477 -21.20898,-12.62305 -17.59141,-7.03656 -41.51654,-11.28711 -67.93555,-11.28711 z m 0,6.05273 c 25.76537,0 49.08481,4.20893 65.6914,10.85157 8.30329,3.32132 14.91505,7.26038 19.29688,11.40429 4.38179,4.14392 6.48047,8.31459 6.48047,12.51172 0,4.19714 -2.09868,8.36976 -6.48047,12.51367 -4.38183,4.14392 -10.99359,8.08298 -19.29688,11.4043 -16.60659,6.64264 -39.92603,10.85156 -65.6914,10.85156 -25.76538,0 -49.077,-4.20892 -65.6836,-10.85156 -8.30329,-3.32132 -14.91505,-7.26038 -19.29687,-11.4043 -4.38182,-4.14391 -6.48047,-8.31653 -6.48047,-12.51367 0,-4.19713 2.09865,-8.3678 6.48047,-12.51172 4.38182,-4.14391 10.99358,-8.08297 19.29687,-11.40429 16.6066,-6.64264 39.91822,-10.85157 65.6836,-10.85157 z m 97.51562,50.94336 c -0.86956,1.11376 -1.81941,2.1949 -2.84375,3.24219 -0.99023,1.01243 -2.07482,1.99035 -3.20312,2.95117 v 22.98633 c 0,4.19714 -2.09868,8.36976 -6.48047,12.51367 -4.38183,4.14392 -10.99359,8.08298 -19.29688,11.4043 -16.60659,6.64264 -39.92603,10.85156 -65.6914,10.85156 -25.76538,0 -49.077,-4.20892 -65.6836,-10.85156 -8.30329,-3.32132 -14.91505,-7.26038 -19.29687,-11.4043 -4.38182,-4.14391 -6.48047,-8.31653 -6.48047,-12.51367 v -22.98437 c -1.12885,-0.96152 -2.21408,-1.93993 -3.20508,-2.95313 -1.02331,-1.04625 -1.97293,-2.12569 -2.84179,-3.23828 v 29.17578 c 0,6.23974 3.19019,12.0125 8.37109,16.91211 5.1809,4.89961 12.40547,9.10477 21.20117,12.62305 17.5914,7.03656 41.51654,11.28711 67.93555,11.28711 26.41901,0 50.34414,-4.25055 67.93555,-11.28711 8.79566,-3.51828 16.02808,-7.72344 21.20898,-12.62305 5.1809,-4.89961 8.37109,-10.67237 8.37109,-16.91211 z m 0,45.35352 c -0.86955,1.11376 -1.81942,2.19489 -2.84375,3.24219 -0.99023,1.01243 -2.07482,1.99035 -3.20312,2.95117 v 22.98633 c 0,4.19714 -2.09868,8.36976 -6.48047,12.51367 -4.38183,4.14392 -10.99358,8.08297 -19.29688,11.4043 -16.60659,6.64264 -39.92603,10.85156 -65.6914,10.85156 -25.76538,0 -49.077,-4.20892 -65.6836,-10.85156 -8.30329,-3.32133 -14.91505,-7.26038 -19.29687,-11.4043 -4.38182,-4.14391 -6.48047,-8.31653 -6.48047,-12.51367 v -22.98438 c -1.12885,-0.96152 -2.21408,-1.93993 -3.20508,-2.95312 -1.02331,-1.04626 -1.97293,-2.1257 -2.84179,-3.23829 v 29.17579 c 0,6.23974 3.19019,12.0125 8.37109,16.91211 5.1809,4.89961 12.40547,9.10476 21.20117,12.62304 17.5914,7.03656 41.51654,11.28711 67.93555,11.28711 26.41901,0 50.34414,-4.25055 67.93555,-11.28711 8.79567,-3.51828 16.02808,-7.72343 21.20898,-12.62304 5.1809,-4.89961 8.37109,-10.67237 8.37109,-16.91211 z m 0,45.35547 c -0.86955,1.11376 -1.81942,2.19489 -2.84375,3.24219 -0.99023,1.01242 -2.07482,1.99035 -3.20312,2.95117 v 22.98633 c 0,4.19713 -2.09868,8.36976 -6.48047,12.51367 -4.38183,4.14392 -10.99358,8.08297 -19.29688,11.40429 -16.60659,6.64264 -39.92603,10.85157 -65.6914,10.85157 -25.76538,0 -49.077,-4.20893 -65.6836,-10.85157 -8.30329,-3.32132 -14.91505,-7.26037 -19.29687,-11.40429 -4.38182,-4.14391 -6.48047,-8.31654 -6.48047,-12.51367 V 286.9375 c -1.12885,-0.96152 -2.21408,-1.93993 -3.20508,-2.95312 -1.02331,-1.04626 -1.97293,-2.1257 -2.84179,-3.23829 v 29.17579 c 0,6.23973 3.19019,12.01249 8.37109,16.9121 5.1809,4.89961 12.40547,9.10477 21.20117,12.62305 17.5914,7.03656 41.51654,11.28711 67.93555,11.28711 26.41901,0 50.34414,-4.25055 67.93555,-11.28711 8.79567,-3.51828 16.02808,-7.72344 21.20898,-12.62305 5.1809,-4.89961 8.37109,-10.67237 8.37109,-16.9121 z"
       transform="matrix(0.19843738,0,0,0.19843738,20.537425,15.999859)"
       id="path1101"
       inkscape:connector-curvature="0"
       inkscape:label="symbol 1" />
    <g
       aria-label="@"
       transform="matrix(0.30740932,0,0,0.30740931,-15.234191,-3.9555911)"
       style="font-style:normal;font-weight:normal;font-size:40px;line-height:1.25;font-family:sans-serif;letter-spacing:0px;word-spacing:0px;display:inline;fill:#ffb981;fill-opacity:1;stroke:#ffb981;stroke-width:2.26771665;stroke-linejoin:round;stroke-miterlimit:4;stroke-dasharray:none;stroke-opacity:1;filter:url(#filter1032)"
       id="flowRoot986"
       inkscape:label="text 1">
      <path
         d="m 184.22134,241.11232 q -5.37601,0 -7.59467,-2.98667 -1.96267,1.19467 -4.608,1.96267 -2.64534,0.68267 -5.632,0.68267 -6.4,0 -10.24,-3.584 -3.84,-3.66934 -3.84,-10.92267 0,-4.864 1.62133,-9.38667 1.70667,-4.608 4.864,-8.02133 3.15733,-3.49867 7.68,-5.54667 4.52267,-2.13333 10.32533,-2.13333 4.43734,0 7.68001,0.768 3.328,0.768 5.03466,1.45067 l -6.22933,25.94133 q -0.42667,1.28 -0.42667,2.47467 0,1.024 0.512,1.792 0.59734,0.768 2.304,0.768 3.584,0 6.144,-2.048 2.56,-2.13334 4.26667,-5.376 1.70667,-3.328 2.47467,-7.25334 0.85333,-3.92533 0.85333,-7.59466 0,-4.69334 -1.19467,-8.61867 -1.19466,-3.92533 -3.92533,-6.74133 -2.64533,-2.816 -6.99733,-4.352 -4.352,-1.62134 -10.66667,-1.62134 -7.424,0 -13.824,3.24267 -6.4,3.15733 -11.09334,8.53333 -4.69333,5.29067 -7.33866,12.37334 -2.64534,6.99733 -2.64534,14.67733 0,5.71733 1.62134,9.81333 1.70666,4.096 4.69333,6.74134 2.98667,2.64533 7.168,3.92533 4.18133,1.28 9.216,1.28 4.94933,0 8.27733,-0.68267 3.41334,-0.59733 4.352,-0.93866 l -0.59733,6.31466 q -0.768,0.256 -2.21867,0.512 -1.45066,0.34134 -3.328,0.59734 -1.792,0.34133 -3.92533,0.512 -2.048,0.17066 -4.096,0.17066 -6.144,0 -11.34933,-1.792 -5.20534,-1.70666 -9.04534,-5.20533 -3.75466,-3.41333 -5.888,-8.53333 -2.13333,-5.12 -2.13333,-11.86134 0,-8.53333 2.816,-16.81066 2.90133,-8.36267 8.448,-14.848 5.54667,-6.48534 13.568,-10.496 8.02133,-4.01067 18.432,-4.01067 13.90934,0 21.41867,6.912 7.50933,6.912 7.50933,20.39467 0,4.01066 -0.93866,9.13066 -0.85334,5.03467 -3.328,9.64267 -2.47467,4.52267 -6.912,7.68 -4.352,3.072 -11.264,3.072 z M 167.496,234.37099 q 4.608,0 7.85067,-1.70667 0,-1.45067 0.17066,-2.38933 0.17067,-1.024 0.42667,-1.96267 l 4.864,-20.05333 q -0.42667,-0.17067 -1.87733,-0.34134 -1.45067,-0.17066 -3.15734,-0.17066 -3.66933,0 -6.57066,1.45066 -2.90134,1.45067 -4.94934,3.92534 -2.048,2.47466 -3.15733,5.71733 -1.10933,3.24267 -1.10933,6.74133 0,4.608 1.87733,6.74134 1.96267,2.048 5.632,2.048 z"
         style="font-style:italic;font-variant:normal;font-weight:normal;font-stretch:normal;font-size:85.33333588px;font-family:Ubuntu;-inkscape-font-specification:'Ubuntu, Italic';font-variant-ligatures:normal;font-variant-caps:normal;font-variant-numeric:normal;font-feature-settings:normal;text-align:start;writing-mode:lr-tb;text-anchor:start;fill:#ffb981;fill-opacity:1;stroke:#ffb981;stroke-width:2.26771665;stroke-linejoin:round;stroke-miterlimit:4;stroke-dasharray:none;stroke-opacity:1"
         id="path854"
         inkscape:connector-curvature="0" />
    </g>
    <path
       inkscape:label="symbol 0"
       inkscape:connector-curvature="0"
       id="path1107"
       d="m 82.186725,42.399396 c -5.242519,0 -9.990161,0.843468 -13.480952,2.239785 -1.745396,0.698158 -3.179021,1.532617 -4.207105,2.504885 -1.028084,0.972266 -1.661137,2.117408 -1.661137,3.355606 0,1.238197 0.633053,2.383729 1.661137,3.355994 1.028084,0.972266 2.461709,1.806727 4.207105,2.504885 3.490791,1.396317 8.238433,2.239785 13.480952,2.239785 5.242519,0 9.990159,-0.843468 13.480952,-2.239785 1.74539,-0.698158 3.180573,-1.532619 4.208653,-2.504885 1.02809,-0.972265 1.66114,-2.117797 1.66114,-3.355994 0,-1.238198 -0.63305,-2.38334 -1.66114,-3.355606 -1.02808,-0.972268 -2.463263,-1.806727 -4.208653,-2.504885 -3.490793,-1.396317 -8.238433,-2.239785 -13.480952,-2.239785 z m 0,1.201088 c 5.112812,0 9.740261,0.835209 13.035629,2.153357 1.647683,0.659074 2.959703,1.440731 3.829226,2.263038 0.86951,0.822308 1.28596,1.649925 1.28596,2.482793 0,0.832869 -0.41645,1.660873 -1.28596,2.48318 -0.869523,0.822308 -2.181543,1.603965 -3.829226,2.263039 -3.295368,1.318148 -7.922817,2.153355 -13.035629,2.153355 -5.112814,0 -9.738711,-0.835207 -13.034081,-2.153355 -1.647683,-0.659074 -2.959704,-1.440731 -3.829221,-2.263039 -0.869516,-0.822307 -1.285967,-1.650311 -1.285967,-2.48318 0,-0.832868 0.416451,-1.660485 1.285967,-2.482793 0.869517,-0.822307 2.181538,-1.603964 3.829221,-2.263038 3.29537,-1.318148 7.921267,-2.153357 13.034081,-2.153357 z m 19.350745,10.109067 c -0.17255,0.221012 -0.36104,0.43555 -0.56431,0.643372 -0.1965,0.200904 -0.41172,0.39496 -0.63562,0.585622 v 4.561347 c 0,0.83287 -0.41645,1.660873 -1.28596,2.48318 -0.869523,0.822309 -2.181543,1.603965 -3.829226,2.263039 -3.295368,1.318148 -7.922817,2.153356 -13.035629,2.153356 -5.112814,0 -9.738711,-0.835208 -13.034081,-2.153356 -1.647683,-0.659074 -2.959704,-1.44073 -3.829221,-2.263039 -0.869516,-0.822307 -1.285967,-1.65031 -1.285967,-2.48318 V 54.938934 C 63.81345,54.748133 63.5981,54.553979 63.401448,54.352923 63.198385,54.145308 63.009945,53.931106 62.837531,53.710327 v 5.789565 c 0,1.238198 0.633053,2.383729 1.661137,3.355995 1.028084,0.972266 2.461709,1.806727 4.207105,2.504885 3.490791,1.396316 8.238433,2.239784 13.480952,2.239784 5.242519,0 9.990159,-0.843468 13.480952,-2.239784 1.745388,-0.698158 3.180573,-1.532619 4.208653,-2.504885 1.02809,-0.972266 1.66114,-2.117797 1.66114,-3.355995 z m 0,8.999834 c -0.17255,0.221011 -0.36104,0.435548 -0.56431,0.643371 -0.1965,0.200904 -0.41172,0.39496 -0.63562,0.585623 v 4.561347 c 0,0.832869 -0.41645,1.660873 -1.28596,2.48318 -0.869523,0.822309 -2.181541,1.603963 -3.829226,2.26304 -3.295368,1.318147 -7.922817,2.153355 -13.035629,2.153355 -5.112814,0 -9.738711,-0.835207 -13.034081,-2.153355 -1.647683,-0.659076 -2.959704,-1.440731 -3.829221,-2.26304 -0.869516,-0.822306 -1.285967,-1.650311 -1.285967,-2.48318 v -4.56096 C 63.81345,63.747964 63.5981,63.553811 63.401448,63.352756 63.198385,63.145139 63.009945,62.930938 62.837531,62.710158 v 5.789568 c 0,1.238197 0.633053,2.383729 1.661137,3.355994 1.028084,0.972266 2.461709,1.806725 4.207105,2.504883 3.490791,1.396317 8.238433,2.239785 13.480952,2.239785 5.242519,0 9.990159,-0.843468 13.480952,-2.239785 1.74539,-0.698158 3.180573,-1.532617 4.208653,-2.504883 1.02809,-0.972265 1.66114,-2.117797 1.66114,-3.355994 z m 0,9.00022 c -0.17255,0.221012 -0.36104,0.435548 -0.56431,0.643372 -0.1965,0.200902 -0.41172,0.39496 -0.63562,0.585622 v 4.561347 c 0,0.832868 -0.41645,1.660873 -1.28596,2.48318 -0.869523,0.82231 -2.181541,1.603963 -3.829226,2.263037 -3.295368,1.318149 -7.922817,2.153358 -13.035629,2.153358 -5.112814,0 -9.738711,-0.835209 -13.034081,-2.153358 -1.647683,-0.659074 -2.959704,-1.440728 -3.829221,-2.263037 -0.869516,-0.822306 -1.285967,-1.650312 -1.285967,-2.48318 v -4.56096 C 63.81345,72.748185 63.5981,72.554032 63.401448,72.352977 63.198385,72.14536 63.009945,71.931158 62.837531,71.710379 v 5.789567 c 0,1.238196 0.633053,2.383727 1.661137,3.355993 1.028084,0.972266 2.461709,1.806727 4.207105,2.504885 3.490791,1.396316 8.238433,2.239779 13.480952,2.239779 5.242519,0 9.990159,-0.843463 13.480952,-2.239779 1.74539,-0.698158 3.180573,-1.532619 4.208653,-2.504885 1.02809,-0.972266 1.66114,-2.117797 1.66114,-3.355993 z"
       style="color:#000000;font-style:normal;font-variant:normal;font-weight:normal;font-stretch:normal;font-size:medium;line-height:normal;font-family:sans-serif;font-variant-ligatures:normal;font-variant-position:normal;font-variant-caps:normal;font-variant-numeric:normal;font-variant-alternates:normal;font-feature-settings:normal;text-indent:0;text-align:start;text-decoration:none;text-decoration-line:none;text-decoration-style:solid;text-decoration-color:#000000;letter-spacing:normal;word-spacing:normal;text-transform:none;writing-mode:lr-tb;direction:ltr;text-orientation:mixed;dominant-baseline:auto;baseline-shift:baseline;text-anchor:start;white-space:normal;shape-padding:0;clip-rule:nonzero;display:inline;overflow:visible;visibility:visible;opacity:1;isolation:auto;mix-blend-mode:normal;color-interpolation:sRGB;color-interpolation-filters:linearRGB;solid-color:#000000;solid-opacity:1;vector-effect:none;fill:#c1fff3;fill-opacity:1;fill-rule:nonzero;stroke:#c1fff3;stroke-width:0;stroke-linecap:butt;stroke-linejoin:round;stroke-miterlimit:4;stroke-dasharray:none;stroke-dashoffset:0;stroke-opacity:1;paint-order:markers stroke fill;color-rendering:auto;image-rendering:auto;shape-rendering:auto;text-rendering:auto;enable-background:accumulate" />
    <g
       aria-label="@"
       transform="matrix(0.30740932,0,0,0.30740931,-15.234191,-3.95559)"
       style="font-style:normal;font-weight:normal;font-size:40px;line-height:1.25;font-family:sans-serif;letter-spacing:0px;word-spacing:0px;display:inline;fill:#ffdcc1;fill-opacity:1;stroke:#ffdcc1;stroke-width:0;stroke-linejoin:round;stroke-miterlimit:4;stroke-dasharray:none;stroke-opacity:1"
       id="flowRoot1006"
       inkscape:label="text 0">
      <path
         d="m 184.22134,241.11232 q -5.37601,0 -7.59467,-2.98667 -1.96267,1.19467 -4.608,1.96267 -2.64534,0.68267 -5.632,0.68267 -6.4,0 -10.24,-3.584 -3.84,-3.66934 -3.84,-10.92267 0,-4.864 1.62133,-9.38667 1.70667,-4.608 4.864,-8.02133 3.15733,-3.49867 7.68,-5.54667 4.52267,-2.13333 10.32533,-2.13333 4.43734,0 7.68001,0.768 3.328,0.768 5.03466,1.45067 l -6.22933,25.94133 q -0.42667,1.28 -0.42667,2.47467 0,1.024 0.512,1.792 0.59734,0.768 2.304,0.768 3.584,0 6.144,-2.048 2.56,-2.13334 4.26667,-5.376 1.70667,-3.328 2.47467,-7.25334 0.85333,-3.92533 0.85333,-7.59466 0,-4.69334 -1.19467,-8.61867 -1.19466,-3.92533 -3.92533,-6.74133 -2.64533,-2.816 -6.99733,-4.352 -4.352,-1.62134 -10.66667,-1.62134 -7.424,0 -13.824,3.24267 -6.4,3.15733 -11.09334,8.53333 -4.69333,5.29067 -7.33866,12.37334 -2.64534,6.99733 -2.64534,14.67733 0,5.71733 1.62134,9.81333 1.70666,4.096 4.69333,6.74134 2.98667,2.64533 7.168,3.92533 4.18133,1.28 9.216,1.28 4.94933,0 8.27733,-0.68267 3.41334,-0.59733 4.352,-0.93866 l -0.59733,6.31466 q -0.768,0.256 -2.21867,0.512 -1.45066,0.34134 -3.328,0.59734 -1.792,0.34133 -3.92533,0.512 -2.048,0.17066 -4.096,0.17066 -6.144,0 -11.34933,-1.792 -5.20534,-1.70666 -9.04534,-5.20533 -3.75466,-3.41333 -5.888,-8.53333 -2.13333,-5.12 -2.13333,-11.86134 0,-8.53333 2.816,-16.81066 2.90133,-8.36267 8.448,-14.848 5.54667,-6.48534 13.568,-10.496 8.02133,-4.01067 18.432,-4.01067 13.90934,0 21.41867,6.912 7.50933,6.912 7.50933,20.39467 0,4.01066 -0.93866,9.13066 -0.85334,5.03467 -3.328,9.64267 -2.47467,4.52267 -6.912,7.68 -4.352,3.072 -11.264,3.072 z M 167.496,234.37099 q 4.608,0 7.85067,-1.70667 0,-1.45067 0.17066,-2.38933 0.17067,-1.024 0.42667,-1.96267 l 4.864,-20.05333 q -0.42667,-0.17067 -1.87733,-0.34134 -1.45067,-0.17066 -3.15734,-0.17066 -3.66933,0 -6.57066,1.45066 -2.90134,1.45067 -4.94934,3.92534 -2.048,2.47466 -3.15733,5.71733 -1.10933,3.24267 -1.10933,6.74133 0,4.608 1.87733,6.74134 1.96267,2.048 5.632,2.048 z"
         style="font-style:italic;font-variant:normal;font-weight:normal;font-stretch:normal;font-size:85.33333588px;font-family:Ubuntu;-inkscape-font-specification:'Ubuntu, Italic';font-variant-ligatures:normal;font-variant-caps:normal;font-variant-numeric:normal;font-feature-settings:normal;text-align:start;writing-mode:lr-tb;text-anchor:start;fill:#ffdcc1;fill-opacity:1;stroke:#ffdcc1;stroke-width:0;stroke-linejoin:round;stroke-miterlimit:4;stroke-dasharray:none;stroke-opacity:1"
         id="path857"
         inkscape:connector-curvature="0" />
    </g>
  </g>
</svg>
